<svg width="20" height="11" viewBox="0 0 20 11" fill="none" xmlns="http://www.w3.org/2000/svg">
<path fill-rule="evenodd" clip-rule="evenodd" d="M0.170469 0.0442138C0.00636717 0.121346 0 0.193169 0 1.96934C0 3.5485 0.005 3.67584 0.0701172 3.75388C0.124805 3.81945 0.217187 3.84967 0.490039 3.89138C1.13793 3.9904 1.58371 4.30321 1.84762 4.84397C1.96359 5.0817 1.97266 5.12914 1.97266 5.49846C1.97266 5.86778 1.96359 5.91522 1.84762 6.15294C1.58371 6.69371 1.13793 7.00652 0.490039 7.10553C0.217187 7.14725 0.124805 7.17747 0.0701172 7.24304C0.005 7.32108 0 7.44842 0 9.02758C0 10.1931 0.0136328 10.7571 0.0433594 10.8205C0.0672266 10.8713 0.12957 10.9318 0.181914 10.955C0.317617 11.015 19.6824 11.015 19.8181 10.955C19.8704 10.9318 19.9328 10.8713 19.9566 10.8205C19.9864 10.7571 20 10.1931 20 9.02758C20 7.44842 19.995 7.32108 19.9299 7.24304C19.8753 7.17755 19.7825 7.14709 19.51 7.10519C18.8734 7.00735 18.4392 6.70948 18.1742 6.18901C18.0325 5.91066 18.0273 5.88655 18.0273 5.50043C18.0273 5.12888 18.0363 5.08197 18.1524 4.84397C18.4143 4.30716 18.8674 3.98918 19.51 3.89123C19.7829 3.84963 19.8752 3.81945 19.9299 3.75388C19.995 3.67584 20 3.5485 20 1.96934C20 0.803857 19.9864 0.239775 19.9566 0.176446C19.9328 0.125631 19.8704 0.0651086 19.8181 0.0419386C19.6883 -0.0154366 0.292656 -0.0132373 0.170469 0.0442138ZM19.3359 1.94677V3.24903L19.1205 3.29583C18.5358 3.42286 17.8496 3.95126 17.5879 4.47591C17.2589 5.13563 17.2578 5.86091 17.5848 6.50944C17.8725 7.08001 18.5125 7.57527 19.1206 7.69779L19.3359 7.74121V9.04681V10.3524H10H0.664062V9.05014V7.74788L0.879531 7.70109C1.46422 7.57405 2.15043 7.04565 2.41207 6.52101C2.74055 5.86239 2.74219 5.13589 2.4166 4.4902C2.1266 3.91509 1.49066 3.4223 0.879414 3.29913L0.664062 3.25571V1.95011V0.644511H10H19.3359V1.94677ZM1.32812 1.61151V1.93384H1.66016H1.99219V1.61151V1.28918H1.66016H1.32812V1.61151ZM6.01562 1.61151V1.93384H6.34766H6.67969V1.61151V1.28918H6.34766H6.01562V1.61151ZM18.0078 1.61151V1.93384H18.3398H18.6719V1.61151V1.28918H18.3398H18.0078V1.61151ZM9.57031 2.33167C9.19238 2.45143 8.81539 2.84832 8.70551 3.24213C8.64195 3.46993 8.68387 3.8609 8.79742 4.09893C8.9191 4.35414 9.17176 4.59824 9.45285 4.73225C9.63543 4.81932 9.7182 4.83483 10 4.83483C10.2841 4.83483 10.364 4.81959 10.5533 4.72937C10.8368 4.59422 11.0789 4.35941 11.2073 4.09536C11.293 3.9188 11.3086 3.83443 11.3082 3.5455C11.3079 3.24623 11.2945 3.17952 11.1995 3.00376C10.942 2.52784 10.5909 2.30653 10.0628 2.28746C9.85977 2.2801 9.68301 2.29599 9.57031 2.33167ZM6.01562 2.90084V3.22317H6.34766H6.67969V2.90084V2.57851H6.34766H6.01562V2.90084ZM11.7668 5.28121L9.10043 7.86984L9.33598 8.09612L9.57152 8.32239L12.2367 5.73501L14.9019 3.14767L14.6675 2.9201L14.4331 2.69254L11.7668 5.28121ZM10.3131 2.99003C10.6905 3.18468 10.773 3.67064 10.4819 3.9835C9.96988 4.53362 9.06574 3.92388 9.41316 3.26276C9.48523 3.12564 9.62883 2.99704 9.76562 2.94718C9.89445 2.90016 10.1827 2.92272 10.3131 2.99003ZM6.01562 4.18865V4.5125H6.34922H6.68285L6.67148 4.19965L6.66016 3.8868L6.33789 3.8758L6.01562 3.86476V4.18865ZM6.01562 5.49846V5.84282L6.33789 5.83179L6.66016 5.82079V5.49846V5.17613L6.33789 5.16513L6.01562 5.15409V5.49846ZM13.644 6.19583C12.4632 6.5705 12.324 8.05076 13.418 8.59895C13.6984 8.73945 14.1523 8.76061 14.461 8.64757C14.8482 8.50582 15.1969 8.13051 15.2906 7.75479C15.3435 7.5428 15.3177 7.18331 15.2339 6.96606C15.0085 6.38108 14.2374 6.00755 13.644 6.19583ZM6.01562 6.80827V7.13215L6.33789 7.12112L6.66016 7.11012L6.67148 6.79727L6.68285 6.48442H6.34922H6.01562V6.80827ZM14.2812 6.86003C14.512 6.96177 14.623 7.13223 14.6407 7.41186C14.6529 7.60409 14.6406 7.66184 14.564 7.77026C14.4277 7.96316 14.2864 8.04765 14.0659 8.06824C13.8238 8.09081 13.6703 8.03381 13.5171 7.86438C13.2124 7.52752 13.3141 7.04194 13.7274 6.85969C13.9291 6.77076 14.0789 6.77087 14.2812 6.86003ZM6.01562 8.09608V8.41841H6.34766H6.67969V8.09608V7.77375H6.34766H6.01562V8.09608ZM1.32812 9.38541V9.70774H1.66016H1.99219V9.38541V9.06308H1.66016H1.32812V9.38541ZM6.01562 9.38541V9.70774H6.34766H6.67969V9.38541V9.06308H6.34766H6.01562V9.38541ZM18.0078 9.38541V9.70774H18.3398H18.6719V9.38541V9.06308H18.3398H18.0078V9.38541Z" fill="#20315C"/>
</svg>
