<svg width="13" height="22" viewBox="0 0 13 22" fill="none" xmlns="http://www.w3.org/2000/svg">
<path d="M1.1709 2.19274C1.26058 2.07562 1.34321 1.95517 1.43641 1.8397C1.6994 1.52855 2.01623 1.28587 2.4016 1.14445C3.09808 0.891205 3.78937 0.639828 4.48792 0.400484C5.06886 0.200478 5.62015 0.227761 6.05823 0.714364C6.21026 0.88514 6.3353 1.09489 6.41514 1.30918C6.79777 2.34266 7.16651 3.3782 7.53358 4.41727C7.69758 4.88235 7.72204 5.34195 7.43405 5.77919C7.21667 6.10322 6.89472 6.27455 6.54213 6.40127C5.9562 6.61185 5.37193 6.81891 4.786 7.02949C4.48526 7.13758 4.45515 7.19231 4.44677 7.51149C4.42262 8.74093 4.71784 9.91414 5.08066 11.0718C5.44514 12.226 5.91831 13.3323 6.57423 14.3525C6.79825 14.6994 7.06356 15.0227 7.30813 15.3534C7.4214 15.5059 7.56758 15.4973 7.7248 15.4379C8.33313 15.2163 8.94127 14.986 9.55352 14.7835C9.7939 14.703 10.0591 14.6428 10.3119 14.6457C10.8261 14.6511 11.1968 14.9336 11.4387 15.3795C11.5023 15.4913 11.5521 15.6139 11.5949 15.7332C11.9521 16.7202 12.3145 17.7053 12.6561 18.6979C12.7401 18.94 12.7966 19.2036 12.7954 19.4529C12.7886 19.9969 12.5017 20.4045 12.0149 20.6058C11.2277 20.9326 10.4205 21.2198 9.60956 21.4966C9.16344 21.6482 8.70255 21.6118 8.25005 21.4846C8.19387 21.4667 8.13624 21.4611 8.08193 21.4484C7.85996 21.3438 7.638 21.2391 7.41251 21.1328C7.37874 21.1039 7.34497 21.0751 7.3112 21.0463C6.85723 20.703 6.37275 20.397 5.95448 20.0145C4.72248 18.8735 3.76602 17.5135 2.94338 16.0614C1.45585 13.4255 0.608564 10.5918 0.377452 7.57465C0.290377 6.43496 0.318374 5.29781 0.519079 4.16886C0.584761 3.76468 0.706418 3.36966 0.805273 2.96819C0.926595 2.71089 1.04792 2.45358 1.1709 2.19274Z" fill="white"/>
</svg>
